<?xml version="1.0" encoding="iso-8859-1"?>
<!-- Generator: Adobe Illustrator 16.0.0, SVG Export Plug-In . SVG Version: 6.00 Build 0)  -->
<!DOCTYPE svg PUBLIC "-//W3C//DTD SVG 1.1//EN" "http://www.w3.org/Graphics/SVG/1.1/DTD/svg11.dtd">
<svg version="1.1" id="Capa_1" xmlns="http://www.w3.org/2000/svg" xmlns:xlink="http://www.w3.org/1999/xlink" x="0px" y="0px"
	 width="87.604px" height="87.604px" viewBox="0 0 87.604 87.604" style="enable-background:new 0 0 87.604 87.604;"
	 xml:space="preserve">
<g>
	<g id="Map">
		<g>
			<path d="M86.166,0.818c-0.909-0.674-2.089-0.903-3.195-0.614L57.167,6.938L31.366,0.205c-0.039-0.01-0.08-0.008-0.12-0.017
				c-0.147-0.034-0.297-0.048-0.447-0.063c-0.126-0.013-0.25-0.03-0.376-0.03c-0.151-0.001-0.302,0.019-0.453,0.036
				c-0.129,0.015-0.257,0.027-0.384,0.056c-0.044,0.01-0.089,0.007-0.132,0.019L2.725,7.183C1.118,7.6,0,9.017,0,10.631v73.318
				c0,1.113,0.532,2.161,1.441,2.834c0.649,0.487,1.438,0.738,2.24,0.738c0.32,0,0.639-0.037,0.957-0.123l25.771-6.725l25.776,6.725
				c0.315,0.086,0.635,0.123,0.955,0.123c0.008,0,0.017-0.002,0.024-0.002s0.017,0.002,0.024,0.002c0.322,0,0.64-0.037,0.957-0.123
				l26.732-6.973c1.607-0.422,2.725-1.834,2.725-3.454V3.659C87.605,2.546,87.074,1.499,86.166,0.818z M7.363,13.374L26.73,8.315
				v65.919L7.363,79.287V13.374z M53.46,79.287l-19.367-5.053V8.315l19.367,5.058V79.287z M80.244,74.234l-19.37,5.053V13.374
				l19.37-5.058V74.234z"/>
		</g>
	</g>
</g>
<g>
</g>
<g>
</g>
<g>
</g>
<g>
</g>
<g>
</g>
<g>
</g>
<g>
</g>
<g>
</g>
<g>
</g>
<g>
</g>
<g>
</g>
<g>
</g>
<g>
</g>
<g>
</g>
<g>
</g>
</svg>
